<?xml version="1.0" encoding="iso-8859-1"?>
<!-- Generator: Adobe Illustrator 19.0.0, SVG Export Plug-In . SVG Version: 6.00 Build 0)  -->
<svg version="1.1" id="Capa_1" xmlns="http://www.w3.org/2000/svg" fill="#054581" xmlns:xlink="http://www.w3.org/1999/xlink" x="0px" y="0px"
	 viewBox="0 0 511.999 511.999" style="enable-background:new 0 0 511.999 511.999;" xml:space="preserve">
<g>
	<g>
		<path d="M465.877,270.765l-18.96,11.118c-7.995,4.69-17.899,4.636-25.845-0.142l-17.72-10.653
			c-17.374-10.448-39.029-10.568-56.518-0.312l-18.94,11.107c-7.998,4.69-17.899,4.635-25.845-0.142l-17.72-10.653
			c-1.786-1.074-3.62-2.033-5.488-2.889V62.146C278.842,44.419,293.263,30,310.99,30s32.147,14.421,32.147,32.147v33.913h30V62.146
			C373.137,27.879,345.26,0,310.991,0c-34.269,0-62.147,27.879-62.147,62.146v119.302H122.747V62.146
			C122.747,44.42,137.168,30,154.894,30c17.726,0,32.147,14.421,32.147,32.147v33.913h30V62.146C217.041,27.879,189.162,0,154.894,0
			c-34.268,0-62.146,27.879-62.146,62.146v218.037l-2.895,1.698c-7.997,4.69-17.901,4.635-25.845-0.142l-17.603-10.583
			l-15.459,25.711l17.603,10.584c17.362,10.44,39.004,10.559,56.479,0.31l18.94-11.107c8.009-4.697,17.927-4.642,25.884,0.143
			l17.72,10.653c17.362,10.441,39.003,10.56,56.478,0.311l18.939-11.107c8.01-4.697,17.928-4.642,25.884,0.143l17.72,10.653
			c8.771,5.274,18.634,7.914,28.501,7.914c9.663,0,19.331-2.532,27.979-7.603l18.94-11.107c8.009-4.696,17.927-4.641,25.883,0.143
			l17.721,10.654c17.362,10.439,39.004,10.559,56.478,0.31l18.96-11.118L465.877,270.765z M248.844,263.609
			c-7.299,0.927-14.459,3.314-21.03,7.168l-18.94,11.107c-7.997,4.69-17.899,4.635-25.845-0.142l-17.72-10.653
			c-12.973-7.8-28.333-9.841-42.563-6.105v-53.536h0.001h126.097V263.609z"/>
	</g>
</g>
<g>
	<g>
		<path d="M465.878,370.896l-18.96,11.119c-7.996,4.69-17.898,4.635-25.845-0.142l-17.721-10.655
			c-17.374-10.446-39.03-10.564-56.517-0.31l-18.94,11.106c-7.996,4.69-17.9,4.635-25.844-0.142l-17.722-10.654
			c-17.373-10.449-39.03-10.566-56.516-0.311l-18.94,11.106c-7.997,4.691-17.9,4.636-25.844-0.142l-17.721-10.655
			c-17.376-10.447-39.032-10.565-56.517-0.31l-18.94,11.106c-7.997,4.689-17.9,4.635-25.844-0.141l-17.603-10.585l-15.46,25.709
			L48.55,407.58c17.362,10.439,39.003,10.558,56.478,0.31l18.94-11.107c8.008-4.697,17.926-4.643,25.883,0.143l17.721,10.655
			c17.363,10.44,39.004,10.557,56.478,0.31l18.94-11.107c8.008-4.7,17.926-4.644,25.882,0.142l17.722,10.655
			c8.771,5.273,18.634,7.913,28.5,7.913c9.664,0,19.331-2.533,27.979-7.604l18.941-11.107c8.007-4.696,17.923-4.644,25.882,0.143
			l17.722,10.655c17.364,10.44,39.005,10.557,56.477,0.31l18.96-11.118L465.878,370.896z"/>
	</g>
</g>
<g>
	<g>
		<path d="M465.875,467.398l-18.957,11.12c-7.997,4.689-17.9,4.636-25.845-0.143l-17.721-10.654
			c-17.374-10.445-39.03-10.564-56.517-0.31l-18.94,11.107c-7.997,4.689-17.898,4.634-25.845-0.143l-17.721-10.653
			c-17.373-10.449-39.03-10.565-56.516-0.311l-18.94,11.107c-7.997,4.689-17.899,4.636-25.845-0.143l-17.72-10.654
			c-17.376-10.447-39.032-10.564-56.517-0.31l-18.94,11.107c-7.997,4.689-17.9,4.635-25.845-0.143L46.405,467.79l-15.459,25.711
			l17.603,10.584c17.362,10.44,39.004,10.559,56.478,0.311l18.94-11.107c8.008-4.696,17.926-4.642,25.883,0.142l17.72,10.653
			c17.362,10.441,39.004,10.561,56.478,0.311l18.94-11.107c8.008-4.699,17.925-4.643,25.883,0.142l17.72,10.653
			c8.772,5.275,18.634,7.915,28.502,7.915c9.663-0.001,19.331-2.533,27.978-7.604l18.941-11.107
			c8.009-4.697,17.928-4.641,25.882,0.142l17.721,10.654c17.363,10.44,39.004,10.56,56.478,0.311l18.96-11.118L465.875,467.398z"/>
	</g>
</g>
<g>
</g>
<g>
</g>
<g>
</g>
<g>
</g>
<g>
</g>
<g>
</g>
<g>
</g>
<g>
</g>
<g>
</g>
<g>
</g>
<g>
</g>
<g>
</g>
<g>
</g>
<g>
</g>
<g>
</g>
</svg>
