<svg id="Layer_3" enable-background="new 0 0 64 64" height="512" fill="#85B5CC"  viewBox="0 0 64 64" width="512" xmlns="http://www.w3.org/2000/svg"><path d="m62.493 18.13-30-17c-.307-.173-.68-.173-.986 0l-30 17c-.314.178-.507.51-.507.87v43c0 .552.447 1 1 1h5c.553 0 1-.448 1-1v-20c0-1.144-.402-2.188-1.051-3.031 1.721-.156 3.176-1.366 3.601-3.069.854-3.417.5-6.946-.989-10.088 1.876-.43 3.472-1.605 4.439-3.209 1.226 2.034 3.457 3.397 6 3.397 1.076 0 2.089-.256 3-.691v8.691c0 2.613 2.022 4.74 4.579 4.957-.977 1.068-1.579 2.485-1.579 4.043v19c0 .552.447 1 1 1h10c.553 0 1-.448 1-1v-19c0-1.558-.602-2.975-1.579-4.043 2.557-.217 4.579-2.344 4.579-4.957v-8.691c.911.435 1.924.691 3 .691 2.543 0 4.774-1.363 6-3.397.966 1.604 2.562 2.778 4.439 3.209-1.489 3.142-1.843 6.671-.989 10.088.426 1.704 1.88 2.913 3.601 3.069-.649.843-1.051 1.887-1.051 3.031v20c0 .552.447 1 1 1h5c.553 0 1-.448 1-1v-43c0-.36-.193-.692-.507-.87zm-30.493-14.981 1.173.665 3.818 15.272c-.047 2.717-2.264 4.914-4.991 4.914s-4.944-2.197-4.991-4.913l3.818-15.272zm-26 57.851h-3v-22c1.654 0 3 1.346 3 3zm2.61-25.586c-.234.934-1.069 1.586-2.032 1.586h-2.168c1.67-1.695 2.59-3.932 2.59-6.313v-.687h-2v.687c0 1.845-.712 3.579-2 4.895v-11.693c1.136 1.161 2.67 1.928 4.38 2.079 1.588 2.895 2.035 6.225 1.23 9.446zm-.61-11.414c-2.566 0-4.687-1.943-4.969-4.435l16.165-9.16-5.996 7.995.014.01c-.126.167-.214.365-.214.59 0 2.757-2.243 5-5 5zm7.03-4.706 8.514-11.352 4.883-2.767-3.397 13.582.018.004c-.02.079-.048.155-.048.239 0 2.757-2.243 5-5 5-2.656 0-4.815-2.088-4.97-4.706zm20.97 41.706h-8v-18c0-1.311.642-2.466 1.619-3.196l-.328 1.641c-.193.965-.291 1.955-.291 2.941v2.614h2v-2.614c0-.855.085-1.713.252-2.549l.564-2.818c.062-.003.121-.019.184-.019s.122.016.184.019l.564 2.818c.167.836.252 1.694.252 2.549v2.614h2v-2.614c0-.986-.098-1.976-.291-2.942l-.328-1.64c.977.73 1.619 1.885 1.619 3.196zm0-24h-1.847c1.839-2.498 2.847-5.496 2.847-8.657v-1.343h-2v1.343c0 3.248-1.226 6.302-3.441 8.657h-1.198c-.877-1.755-1.361-3.692-1.361-5.657v-1.343h-2v1.343c0 1.943.395 3.869 1.142 5.657h-.142c-1.654 0-3-1.346-3-3v-10.116c.379-.388.719-.814 1-1.281 1.226 2.034 3.457 3.397 6 3.397s4.774-1.363 6-3.397c.281.467.621.893 1 1.281v10.116c0 1.654-1.346 3-3 3zm8-13c-2.757 0-5-2.243-5-5 0-.084-.028-.16-.048-.238l.018-.004-3.396-13.583 4.883 2.767 8.514 11.352c-.156 2.618-2.315 4.706-4.971 4.706zm7-5c0-.225-.088-.423-.214-.59l.014-.01-5.996-7.995 16.165 9.16c-.282 2.492-2.403 4.435-4.969 4.435-2.757 0-5-2.243-5-5zm10 42h-3v-19c0-1.654 1.346-3 3-3zm0-25.419c-1.288-1.316-2-3.05-2-4.895v-.686h-2v.687c0 2.381.92 4.619 2.59 6.313h-2.168c-.963 0-1.798-.652-2.032-1.586-.805-3.221-.357-6.551 1.231-9.445 1.71-.151 3.244-.918 4.38-2.079v11.691z"/></svg>